<svg width="47" height="84" viewBox="0 0 47 84" fill="none" xmlns="http://www.w3.org/2000/svg">
<path d="M44.3422 1.28516L44.3372 56.9632L40.8062 59.0141L40.8122 3.33714L44.3422 1.28516Z" fill="#CBD0D8"/>
<path d="M40.8121 3.33675L40.8061 59.0137L38.5801 57.7287L38.5861 2.05176L40.8121 3.33675Z" fill="#A7ABB2"/>
<path d="M42.1162 0L44.3422 1.285L40.8122 3.33699L38.5862 2.052L42.1162 0Z" fill="#E2E7F0"/>
<path d="M5.76107 23.7061L5.76307 79.384L2.22807 81.438L2.22607 25.76L5.76107 23.7061Z" fill="#CBD0D8"/>
<path d="M2.226 25.7596L2.228 81.4376L0.00200272 80.1526L0 24.4746L2.226 25.7596Z" fill="#A7ABB2"/>
<path d="M0 24.4749L3.535 22.4209L5.761 23.7059L2.226 25.7599L0 24.4749Z" fill="#E2E7F0"/>
<path d="M46.5601 7.5127L46.5551 9.33569L43.0251 11.3867L43.0301 9.5647L46.5601 7.5127Z" fill="#CBD0D8"/>
<path d="M43.0301 9.56433L43.0251 11.3863L40.7991 10.1013L40.8051 8.27832L43.0301 9.56433Z" fill="#A7ABB2"/>
<path d="M44.3352 6.22754L46.5602 7.51254L43.0302 9.56454L40.8052 8.27853L44.3352 6.22754Z" fill="#E2E7F0"/>
<path d="M46.5601 16.6807L46.5551 18.5037L43.0251 20.5547L43.0301 18.7327L46.5601 16.6807Z" fill="#CBD0D8"/>
<path d="M43.0301 18.7323L43.0251 20.5543L40.7991 19.2693L40.8051 17.4473L43.0301 18.7323Z" fill="#A7ABB2"/>
<path d="M44.3352 15.3955L46.5602 16.6805L43.0302 18.7325L40.8052 17.4475L44.3352 15.3955Z" fill="#E2E7F0"/>
<path d="M46.5601 25.8496L46.5551 27.6716L43.0251 29.7236L43.0301 27.9006L46.5601 25.8496Z" fill="#CBD0D8"/>
<path d="M43.0301 27.9002L43.0251 29.7232L40.7991 28.4382L40.8051 26.6152L43.0301 27.9002Z" fill="#A7ABB2"/>
<path d="M44.3352 24.5645L46.5602 25.8495L43.0302 27.9005L40.8052 26.6155L44.3352 24.5645Z" fill="#E2E7F0"/>
<path d="M46.5601 35.0176L46.5551 36.8406L43.0251 38.8916L43.0301 37.0696L46.5601 35.0176Z" fill="#CBD0D8"/>
<path d="M43.0301 37.0692L43.0251 38.8912L40.7991 37.6062L40.8051 35.7842L43.0301 37.0692Z" fill="#A7ABB2"/>
<path d="M44.3352 33.7324L46.5602 35.0174L43.0302 37.0694L40.8052 35.7844L44.3352 33.7324Z" fill="#E2E7F0"/>
<path d="M46.5601 44.1855L46.5551 46.0085L43.0251 48.0605L43.0301 46.2375L46.5601 44.1855Z" fill="#CBD0D8"/>
<path d="M43.0301 46.2372L43.0251 48.0602L40.7991 46.7742L40.8051 44.9521L43.0301 46.2372Z" fill="#A7ABB2"/>
<path d="M44.3352 42.9004L46.5602 44.1854L43.0302 46.2374L40.8052 44.9524L44.3352 42.9004Z" fill="#E2E7F0"/>
<path d="M46.5601 53.3545L46.5551 55.1765L43.0251 57.2285L43.0301 55.4055L46.5601 53.3545Z" fill="#CBD0D8"/>
<path d="M43.0301 55.4051L43.0251 57.2281L40.7991 55.9431L40.8051 54.1201L43.0301 55.4051Z" fill="#A7ABB2"/>
<path d="M44.3352 52.0693L46.5602 53.3543L43.0302 55.4053L40.8052 54.1203L44.3352 52.0693Z" fill="#E2E7F0"/>
<path d="M39.0951 64.0136L5.70508 83.2906V72.4586L39.0951 53.1816V64.0136Z" fill="url(#paint0_linear_189_1855)"/>
<path d="M39.0951 54.7988L5.70508 74.0758V63.2438L39.0951 43.9668V54.7988Z" fill="url(#paint1_linear_189_1855)"/>
<path d="M39.0951 45.5849L5.70508 64.8629V54.0309L39.0951 34.7529V45.5849Z" fill="url(#paint2_linear_189_1855)"/>
<path d="M39.0951 36.372L5.70508 55.649V44.817L39.0951 25.54V36.372Z" fill="url(#paint3_linear_189_1855)"/>
<path d="M39.0951 27.1582L5.70508 46.4362V35.6042L39.0951 16.3262V27.1582Z" fill="url(#paint4_linear_189_1855)"/>
<path d="M39.0951 17.9443L5.70508 37.2223V26.3903L39.0951 7.11328V17.9443Z" fill="url(#paint5_linear_189_1855)"/>
<path d="M46.398 51.6046C46.391 51.5796 46.382 51.5556 46.373 51.5306C46.362 51.4986 46.355 51.4666 46.341 51.4356C46.334 51.4186 46.32 51.4056 46.311 51.3886C46.267 51.2986 46.214 51.2166 46.152 51.1396C46.14 51.1246 46.134 51.1056 46.122 51.0916C46.118 51.0876 46.113 51.0856 46.109 51.0806C46.038 51.0026 45.962 50.9346 45.879 50.8866C45.726 50.7986 45.588 50.7906 45.488 50.8486L39.626 54.2546C39.726 54.1966 39.865 54.2036 40.018 54.2926C40.1 54.3406 40.177 54.4086 40.248 54.4866C40.264 54.5046 40.276 54.5256 40.291 54.5446C40.352 54.6206 40.406 54.7056 40.45 54.7946C40.473 54.8416 40.495 54.8886 40.512 54.9366C40.521 54.9616 40.53 54.9866 40.537 55.0116C40.56 55.0956 40.577 55.1806 40.577 55.2606C40.576 55.4336 40.515 55.5556 40.416 55.6136L46.278 52.2066C46.377 52.1486 46.439 52.0276 46.439 51.8536C46.438 51.7736 46.422 51.6886 46.398 51.6046Z" fill="url(#paint6_linear_189_1855)"/>
<path d="M40.0179 54.2937C39.7109 54.1167 39.4629 54.2647 39.4619 54.6177C39.4609 54.9707 39.7069 55.3967 40.0139 55.5737C40.3209 55.7507 40.5739 55.6137 40.5759 55.2607C40.5769 54.9077 40.3249 54.4707 40.0179 54.2937Z" fill="#B4B8C0"/>
<path d="M42.077 54.3805C41.852 53.8715 41.544 53.3845 41.182 52.9735C40.877 52.6265 40.534 52.3325 40.172 52.1235C39.527 51.7505 38.943 51.7165 38.522 51.9605L6.28101 70.6275C6.70201 70.3825 7.286 70.4175 7.931 70.7905C8.294 70.9995 8.63601 71.2935 8.94101 71.6415C9.30301 72.0535 9.61101 72.5395 9.83601 73.0485C10.09 73.6225 10.238 74.2265 10.236 74.7835C10.234 75.5125 9.977 76.0255 9.561 76.2665L41.802 57.5995C42.217 57.3585 42.475 56.8455 42.477 56.1165C42.479 55.5585 42.331 54.9555 42.077 54.3805Z" fill="url(#paint7_linear_189_1855)"/>
<path d="M7.93192 70.7906C6.65092 70.0506 5.61192 70.6426 5.60792 72.1106C5.60392 73.5786 6.63592 75.3656 7.91692 76.1056C9.19392 76.8426 10.2329 76.2506 10.2369 74.7836C10.2409 73.3156 9.20892 71.5286 7.93192 70.7906Z" fill="#E4BB7D"/>
<path opacity="0.5" d="M7.96393 71.2893C7.66493 71.1163 7.37593 71.0283 7.10693 71.0283C6.45193 71.0283 6.02593 71.5633 6.02393 72.3923C6.02093 73.5713 6.85493 75.0133 7.88193 75.6063C8.17993 75.7783 8.46793 75.8663 8.73593 75.8663C9.39093 75.8663 9.81693 75.3303 9.81893 74.5013C9.82293 73.3223 8.99093 71.8813 7.96393 71.2893ZM8.73693 75.7253C8.49293 75.7253 8.22993 75.6443 7.95293 75.4843C6.96493 74.9133 6.16393 73.5263 6.16593 72.3923C6.16793 71.6383 6.52993 71.1693 7.10793 71.1693C7.35193 71.1693 7.61693 71.2513 7.89493 71.4113C8.88093 71.9813 9.68193 73.3673 9.67893 74.5013C9.67693 75.2563 9.31493 75.7253 8.73693 75.7253ZM7.96293 71.8673C7.74293 71.7403 7.53093 71.6763 7.33293 71.6763C6.84593 71.6763 6.52993 72.0713 6.52793 72.6833C6.52493 73.5433 7.13393 74.5953 7.88393 75.0283C8.10293 75.1553 8.31393 75.2193 8.51193 75.2193C8.99893 75.2193 9.31393 74.8243 9.31593 74.2123C9.31793 73.3513 8.71193 72.2993 7.96293 71.8673ZM8.51193 75.0773C8.34193 75.0773 8.14893 75.0183 7.95393 74.9053C7.24293 74.4943 6.66693 73.4983 6.66993 72.6833C6.67193 72.1493 6.92593 71.8173 7.33293 71.8173C7.50293 71.8173 7.69693 71.8773 7.89293 71.9903C8.60193 72.4003 9.17693 73.3963 9.17393 74.2113C9.17293 74.7453 8.91893 75.0773 8.51193 75.0773Z" fill="#E4BB7D"/>
<path opacity="0.5" d="M7.92504 72.5199C7.47704 72.2609 7.11404 72.4679 7.11304 72.9809C7.11204 73.4939 7.47204 74.1189 7.92004 74.3769C8.36604 74.6349 8.72904 74.4279 8.73104 73.9149C8.73204 73.4019 8.37204 72.7769 7.92504 72.5199Z" fill="#E4BB7D"/>
<path d="M46.398 42.3908C46.391 42.3658 46.382 42.3418 46.373 42.3168C46.362 42.2848 46.355 42.2528 46.341 42.2218C46.334 42.2048 46.32 42.1918 46.311 42.1748C46.267 42.0848 46.214 42.0028 46.152 41.9258C46.14 41.9108 46.134 41.8918 46.122 41.8778C46.118 41.8738 46.113 41.8708 46.109 41.8668C46.038 41.7888 45.962 41.7208 45.879 41.6728C45.726 41.5848 45.588 41.5768 45.488 41.6348L39.626 45.0418C39.726 44.9838 39.865 44.9908 40.018 45.0798C40.1 45.1268 40.177 45.1958 40.248 45.2738C40.264 45.2918 40.276 45.3128 40.291 45.3318C40.352 45.4078 40.406 45.4928 40.45 45.5818C40.473 45.6288 40.495 45.6748 40.512 45.7238C40.521 45.7488 40.53 45.7738 40.537 45.7988C40.56 45.8828 40.577 45.9678 40.577 46.0478C40.576 46.2208 40.515 46.3428 40.416 46.3998L46.278 42.9928C46.377 42.9348 46.439 42.8138 46.439 42.6408C46.438 42.5598 46.422 42.4758 46.398 42.3908Z" fill="url(#paint8_linear_189_1855)"/>
<path d="M40.0179 45.0798C39.7109 44.9028 39.4629 45.0508 39.4619 45.4028C39.4609 45.7558 39.7069 46.1818 40.0139 46.3588C40.3209 46.5358 40.5739 46.3988 40.5759 46.0458C40.5769 45.6938 40.3249 45.2568 40.0179 45.0798Z" fill="#B4B8C0"/>
<path d="M42.077 45.1673C41.852 44.6583 41.544 44.1713 41.182 43.7593C40.877 43.4123 40.534 43.1183 40.172 42.9093C39.527 42.5373 38.943 42.5023 38.522 42.7463L6.28101 61.4143C6.70201 61.1693 7.286 61.2043 7.931 61.5773C8.294 61.7863 8.63601 62.0803 8.94101 62.4273C9.30301 62.8393 9.61101 63.3253 9.83601 63.8353C10.09 64.4093 10.238 65.0133 10.236 65.5703C10.234 66.2993 9.977 66.8123 9.561 67.0533L41.802 48.3853C42.217 48.1443 42.475 47.6313 42.477 46.9023C42.479 46.3443 42.331 45.7413 42.077 45.1673Z" fill="url(#paint9_linear_189_1855)"/>
<path d="M7.93192 61.5767C6.65092 60.8367 5.61192 61.4287 5.60792 62.8967C5.60392 64.3647 6.63592 66.1517 7.91692 66.8917C9.19392 67.6287 10.2329 67.0367 10.2369 65.5697C10.2409 64.1027 9.20892 62.3147 7.93192 61.5767Z" fill="#E4BB7D"/>
<path opacity="0.5" d="M7.96393 62.0754C7.66493 61.9024 7.37593 61.8145 7.10693 61.8145C6.45193 61.8145 6.02593 62.3494 6.02393 63.1784C6.02093 64.3574 6.85493 65.7994 7.88193 66.3924C8.17993 66.5644 8.46793 66.6524 8.73593 66.6524C9.39093 66.6524 9.81693 66.1164 9.81893 65.2874C9.82293 64.1094 8.99093 62.6674 7.96393 62.0754ZM8.73693 66.5114C8.49293 66.5114 8.22993 66.4304 7.95293 66.2704C6.96493 65.6994 6.16393 64.3124 6.16593 63.1784C6.16793 62.4244 6.52993 61.9554 7.10793 61.9554C7.35193 61.9554 7.61693 62.0364 7.89493 62.1974C8.88093 62.7674 9.68193 64.1534 9.67893 65.2874C9.67693 66.0424 9.31493 66.5114 8.73693 66.5114ZM7.96293 62.6534C7.74293 62.5264 7.53093 62.4624 7.33293 62.4624C6.84593 62.4624 6.52993 62.8575 6.52793 63.4695C6.52493 64.3295 7.13393 65.3815 7.88393 65.8145C8.10293 65.9405 8.31393 66.0045 8.51193 66.0045C8.99893 66.0045 9.31393 65.6094 9.31593 64.9974C9.31793 64.1374 8.71193 63.0864 7.96293 62.6534ZM8.51193 65.8634C8.34193 65.8634 8.14893 65.8044 7.95393 65.6914C7.24293 65.2804 6.66693 64.2845 6.66993 63.4695C6.67193 62.9355 6.92593 62.6035 7.33293 62.6035C7.50293 62.6035 7.69693 62.6634 7.89293 62.7764C8.60193 63.1864 9.17693 64.1824 9.17393 64.9974C9.17293 65.5314 8.91893 65.8634 8.51193 65.8634Z" fill="#E4BB7D"/>
<path opacity="0.5" d="M7.92504 63.3056C7.47704 63.0476 7.11404 63.2536 7.11304 63.7666C7.11204 64.2796 7.47204 64.9046 7.92004 65.1626C8.36604 65.4206 8.72904 65.2136 8.73104 64.7006C8.73204 64.1876 8.37204 63.5626 7.92504 63.3056Z" fill="#E4BB7D"/>
<path d="M46.398 33.1769C46.391 33.1519 46.382 33.1279 46.373 33.1029C46.362 33.0709 46.355 33.0389 46.341 33.0079C46.334 32.9909 46.32 32.9779 46.311 32.9609C46.267 32.8709 46.214 32.7889 46.152 32.7119C46.14 32.6969 46.134 32.6779 46.122 32.6639C46.118 32.6599 46.113 32.6579 46.109 32.6529C46.038 32.5749 45.962 32.5069 45.879 32.4589C45.726 32.3709 45.588 32.3629 45.488 32.4209L39.626 35.8279C39.726 35.7699 39.865 35.7769 40.018 35.8649C40.1 35.9129 40.177 35.9809 40.248 36.0589C40.264 36.0759 40.276 36.0979 40.291 36.1169C40.352 36.1929 40.406 36.2779 40.45 36.3669C40.473 36.4139 40.495 36.4599 40.512 36.5079C40.521 36.5329 40.53 36.5579 40.537 36.5829C40.56 36.6669 40.577 36.7519 40.577 36.8319C40.576 37.0049 40.515 37.1269 40.416 37.1839L46.278 33.7769C46.377 33.7199 46.439 33.5979 46.439 33.4249C46.438 33.3449 46.422 33.2609 46.398 33.1769Z" fill="url(#paint10_linear_189_1855)"/>
<path d="M40.0179 35.8659C39.7109 35.6889 39.4629 35.8369 39.4619 36.1899C39.4609 36.5429 39.7069 36.9689 40.0139 37.1459C40.3209 37.3229 40.5739 37.1859 40.5759 36.8329C40.5769 36.4789 40.3249 36.0429 40.0179 35.8659Z" fill="#B4B8C0"/>
<path d="M42.077 35.9524C41.852 35.4434 41.544 34.9565 41.182 34.5455C40.877 34.1985 40.534 33.9044 40.172 33.6954C39.527 33.3234 38.943 33.2885 38.522 33.5325L6.28101 52.1994C6.70201 51.9544 7.286 51.9894 7.931 52.3624C8.294 52.5714 8.63601 52.8654 8.94101 53.2124C9.30301 53.6244 9.61101 54.1105 9.83601 54.6195C10.09 55.1935 10.238 55.7974 10.236 56.3544C10.234 57.0834 9.977 57.5964 9.561 57.8374L41.802 39.1694C42.217 38.9284 42.475 38.4154 42.477 37.6864C42.479 37.1304 42.331 36.5274 42.077 35.9524Z" fill="url(#paint11_linear_189_1855)"/>
<path d="M7.93192 52.3628C6.65092 51.6228 5.61192 52.2148 5.60792 53.6828C5.60392 55.1508 6.63592 56.9378 7.91692 57.6778C9.19392 58.4148 10.2329 57.8228 10.2369 56.3558C10.2409 54.8878 9.20892 53.0998 7.93192 52.3628Z" fill="#E4BB7D"/>
<path opacity="0.5" d="M7.96393 52.8606C7.66493 52.6876 7.37593 52.5996 7.10693 52.5996C6.45193 52.5996 6.02593 53.1346 6.02393 53.9636C6.02093 55.1426 6.85493 56.5846 7.88193 57.1776C8.17993 57.3496 8.46793 57.4376 8.73593 57.4376C9.39093 57.4376 9.81693 56.9016 9.81893 56.0726C9.82293 54.8946 8.99093 53.4536 7.96393 52.8606ZM8.73693 57.2966C8.49293 57.2966 8.22993 57.2156 7.95293 57.0556C6.96493 56.4846 6.16393 55.0976 6.16593 53.9636C6.16793 53.2096 6.52993 52.7406 7.10793 52.7406C7.35193 52.7406 7.61693 52.8216 7.89493 52.9826C8.88093 53.5526 9.68193 54.9386 9.67893 56.0726C9.67693 56.8276 9.31493 57.2966 8.73693 57.2966ZM7.96293 53.4396C7.74293 53.3126 7.53093 53.2486 7.33293 53.2486C6.84593 53.2486 6.52993 53.6436 6.52793 54.2556C6.52493 55.1156 7.13393 56.1676 7.88393 56.6006C8.10293 56.7276 8.31393 56.7916 8.51193 56.7916C8.99893 56.7916 9.31393 56.3966 9.31593 55.7846C9.31793 54.9226 8.71193 53.8716 7.96293 53.4396ZM8.51193 56.6486C8.34193 56.6486 8.14893 56.5896 7.95393 56.4766C7.24293 56.0656 6.66693 55.0696 6.66993 54.2546C6.67193 53.7206 6.92593 53.3886 7.33293 53.3886C7.50293 53.3886 7.69693 53.4486 7.89293 53.5616C8.60193 53.9716 9.17693 54.9676 9.17393 55.7826C9.17293 56.3166 8.91893 56.6486 8.51193 56.6486Z" fill="#E4BB7D"/>
<path opacity="0.5" d="M7.92504 54.0902C7.47704 53.8312 7.11404 54.0382 7.11304 54.5512C7.11204 55.0642 7.47204 55.6892 7.92004 55.9472C8.36604 56.2052 8.72904 55.9982 8.73104 55.4852C8.73204 54.9732 8.37204 54.3482 7.92504 54.0902Z" fill="#E4BB7D"/>
<path d="M46.398 23.963C46.391 23.938 46.382 23.914 46.373 23.889C46.362 23.857 46.355 23.825 46.341 23.794C46.334 23.777 46.32 23.764 46.311 23.747C46.267 23.657 46.214 23.575 46.152 23.498C46.14 23.483 46.134 23.464 46.122 23.45C46.118 23.446 46.113 23.4441 46.109 23.4391C46.038 23.3611 45.962 23.2931 45.879 23.2451C45.726 23.1571 45.588 23.149 45.488 23.207L39.626 26.613C39.726 26.555 39.865 26.562 40.018 26.651C40.1 26.699 40.177 26.767 40.248 26.845C40.264 26.863 40.276 26.884 40.291 26.903C40.352 26.979 40.406 27.064 40.45 27.153C40.473 27.2 40.495 27.246 40.512 27.295C40.521 27.32 40.53 27.3451 40.537 27.3701C40.56 27.4541 40.577 27.539 40.577 27.619C40.576 27.792 40.515 27.914 40.416 27.972L46.278 24.565C46.377 24.508 46.439 24.386 46.439 24.213C46.438 24.132 46.422 24.048 46.398 23.963Z" fill="url(#paint12_linear_189_1855)"/>
<path d="M40.0179 26.6521C39.7109 26.4751 39.4629 26.6231 39.4619 26.9761C39.4609 27.3291 39.7069 27.7551 40.0139 27.9321C40.3209 28.1091 40.5739 27.9721 40.5759 27.6191C40.5769 27.2661 40.3249 26.8291 40.0179 26.6521Z" fill="#B4B8C0"/>
<path d="M42.077 26.7389C41.852 26.2299 41.544 25.7429 41.182 25.3319C40.877 24.9849 40.534 24.6909 40.172 24.4819C39.527 24.1089 38.943 24.0749 38.522 24.3189L6.28101 42.9859C6.70201 42.7409 7.286 42.7759 7.931 43.1489C8.294 43.3579 8.63601 43.6519 8.94101 43.9999C9.30301 44.4119 9.61101 44.8979 9.83601 45.4069C10.09 45.9809 10.238 46.5849 10.236 47.1419C10.234 47.8709 9.977 48.3839 9.561 48.6249L41.802 29.9569C42.217 29.7159 42.475 29.2029 42.477 28.4739C42.479 27.9169 42.331 27.3139 42.077 26.7389Z" fill="url(#paint13_linear_189_1855)"/>
<path d="M7.93192 43.149C6.65092 42.409 5.61192 43.001 5.60792 44.469C5.60392 45.937 6.63592 47.724 7.91692 48.464C9.19392 49.201 10.2329 48.6089 10.2369 47.1419C10.2409 45.6739 9.20892 43.887 7.93192 43.149Z" fill="#E4BB7D"/>
<path opacity="0.5" d="M7.96393 43.6477C7.66493 43.4747 7.37593 43.3867 7.10693 43.3867C6.45193 43.3867 6.02593 43.9217 6.02393 44.7507C6.02093 45.9297 6.85493 47.3717 7.88193 47.9657C8.17993 48.1377 8.46793 48.2257 8.73593 48.2257C9.39093 48.2257 9.81693 47.6897 9.81893 46.8607C9.82293 45.6817 8.99093 44.2397 7.96393 43.6477ZM8.73693 48.0837C8.49293 48.0837 8.22993 48.0027 7.95293 47.8427C6.96493 47.2717 6.16393 45.8847 6.16593 44.7507C6.16793 43.9967 6.52993 43.5277 7.10793 43.5277C7.35193 43.5277 7.61693 43.6097 7.89493 43.7697C8.88093 44.3397 9.68193 45.7257 9.67893 46.8597C9.67693 47.6147 9.31493 48.0837 8.73693 48.0837ZM7.96293 44.2257C7.74293 44.0987 7.53093 44.0347 7.33293 44.0347C6.84593 44.0347 6.52993 44.4297 6.52793 45.0417C6.52493 45.9017 7.13393 46.9537 7.88393 47.3867C8.10293 47.5137 8.31393 47.5767 8.51193 47.5767C8.99893 47.5767 9.31393 47.1817 9.31593 46.5697C9.31793 45.7097 8.71193 44.6577 7.96293 44.2257ZM8.51193 47.4357C8.34193 47.4357 8.14893 47.3767 7.95393 47.2637C7.24293 46.8527 6.66693 45.8567 6.66993 45.0417C6.67193 44.5077 6.92593 44.1757 7.33293 44.1757C7.50293 44.1757 7.69693 44.2357 7.89293 44.3487C8.60193 44.7587 9.17693 45.7547 9.17393 46.5697C9.17293 47.1037 8.91893 47.4357 8.51193 47.4357Z" fill="#E4BB7D"/>
<path opacity="0.5" d="M7.92504 44.8783C7.47704 44.6193 7.11404 44.8263 7.11304 45.3393C7.11204 45.8523 7.47204 46.4773 7.92004 46.7353C8.36604 46.9933 8.72904 46.7863 8.73104 46.2733C8.73204 45.7603 8.37204 45.1353 7.92504 44.8783Z" fill="#E4BB7D"/>
<path d="M46.398 14.7492C46.391 14.7242 46.382 14.7002 46.373 14.6752C46.362 14.6432 46.355 14.6112 46.341 14.5802C46.334 14.5632 46.32 14.5502 46.311 14.5332C46.267 14.4432 46.214 14.3612 46.152 14.2842C46.14 14.2692 46.134 14.2502 46.122 14.2362C46.118 14.2322 46.113 14.2292 46.109 14.2252C46.038 14.1472 45.962 14.0792 45.879 14.0312C45.726 13.9432 45.588 13.9352 45.488 13.9932L39.626 17.4002C39.726 17.3422 39.865 17.3492 40.018 17.4382C40.1 17.4852 40.177 17.5542 40.248 17.6322C40.264 17.6502 40.276 17.6712 40.291 17.6902C40.352 17.7662 40.406 17.8512 40.45 17.9402C40.473 17.9872 40.495 18.0332 40.512 18.0812C40.521 18.1062 40.53 18.1312 40.537 18.1562C40.56 18.2402 40.577 18.3252 40.577 18.4052C40.576 18.5782 40.515 18.7002 40.416 18.7572L46.278 15.3502C46.377 15.2932 46.439 15.1712 46.439 14.9982C46.438 14.9182 46.422 14.8342 46.398 14.7492Z" fill="url(#paint14_linear_189_1855)"/>
<path d="M40.0179 17.4382C39.7109 17.2612 39.4629 17.4092 39.4619 17.7622C39.4609 18.1152 39.7069 18.5412 40.0139 18.7182C40.3209 18.8952 40.5739 18.7582 40.5759 18.4052C40.5769 18.0522 40.3249 17.6162 40.0179 17.4382Z" fill="#B4B8C0"/>
<path d="M42.077 17.5257C41.852 17.0167 41.544 16.5297 41.182 16.1177C40.877 15.7707 40.534 15.4767 40.172 15.2677C39.527 14.8957 38.943 14.8607 38.522 15.1047L6.28101 33.7727C6.70201 33.5277 7.286 33.5627 7.931 33.9357C8.294 34.1447 8.63601 34.4387 8.94101 34.7857C9.30301 35.1977 9.61101 35.6837 9.83601 36.1937C10.09 36.7677 10.238 37.3717 10.236 37.9287C10.234 38.6577 9.977 39.1707 9.561 39.4117L41.802 20.7437C42.217 20.5027 42.475 19.9897 42.477 19.2607C42.479 18.7037 42.331 18.0997 42.077 17.5257Z" fill="url(#paint15_linear_189_1855)"/>
<path d="M7.93192 33.9361C6.65092 33.1961 5.61192 33.7881 5.60792 35.2561C5.60392 36.7241 6.63592 38.5111 7.91692 39.2511C9.19392 39.9881 10.2329 39.3961 10.2369 37.9291C10.2409 36.4611 9.20892 34.6731 7.93192 33.9361Z" fill="#E4BB7D"/>
<path opacity="0.5" d="M7.96393 34.4339C7.66493 34.2609 7.37593 34.1729 7.10693 34.1729C6.45193 34.1729 6.02593 34.7079 6.02393 35.5369C6.02093 36.7159 6.85493 38.1579 7.88193 38.7509C8.17993 38.9229 8.46793 39.0109 8.73593 39.0109C9.39093 39.0109 9.81693 38.4749 9.81893 37.6459C9.82293 36.4679 8.99093 35.0259 7.96393 34.4339ZM8.73693 38.8699C8.49293 38.8699 8.22993 38.7889 7.95293 38.6289C6.96493 38.0579 6.16393 36.6709 6.16593 35.5369C6.16793 34.7829 6.52993 34.3139 7.10793 34.3139C7.35193 34.3139 7.61693 34.3948 7.89493 34.5558C8.88093 35.1258 9.68193 36.5119 9.67893 37.6459C9.67693 38.4009 9.31493 38.8699 8.73693 38.8699ZM7.96293 35.0128C7.74293 34.8858 7.53093 34.8219 7.33293 34.8219C6.84593 34.8219 6.52993 35.2169 6.52793 35.8289C6.52493 36.6889 7.13393 37.7409 7.88393 38.1739C8.10293 38.2999 8.31393 38.3639 8.51193 38.3639C8.99893 38.3639 9.31393 37.9689 9.31593 37.3569C9.31793 36.4959 8.71193 35.4448 7.96293 35.0128ZM8.51193 38.2219C8.34193 38.2219 8.14893 38.1629 7.95393 38.0499C7.24293 37.6389 6.66693 36.6429 6.66993 35.8279C6.67193 35.2939 6.92593 34.9619 7.33293 34.9619C7.50293 34.9619 7.69693 35.0219 7.89293 35.1349C8.60193 35.5449 9.17693 36.5409 9.17393 37.3559C9.17293 37.8899 8.91893 38.2219 8.51193 38.2219Z" fill="#E4BB7D"/>
<path opacity="0.5" d="M7.92504 35.664C7.47704 35.406 7.11404 35.612 7.11304 36.125C7.11204 36.638 7.47204 37.263 7.92004 37.521C8.36604 37.779 8.72904 37.572 8.73104 37.059C8.73204 36.546 8.37204 35.922 7.92504 35.664Z" fill="#E4BB7D"/>
<path d="M46.398 5.53628C46.391 5.51128 46.382 5.48727 46.373 5.46227C46.362 5.43027 46.355 5.39829 46.341 5.36729C46.334 5.35029 46.32 5.33728 46.311 5.32028C46.267 5.23028 46.214 5.14828 46.152 5.07128C46.14 5.05628 46.134 5.03728 46.122 5.02328C46.118 5.01928 46.113 5.01728 46.109 5.01228C46.038 4.93428 45.962 4.86628 45.879 4.81828C45.726 4.73028 45.588 4.72228 45.488 4.78028L39.626 8.18728C39.726 8.12928 39.865 8.13627 40.018 8.22527C40.1 8.27327 40.177 8.34127 40.248 8.41927C40.264 8.43727 40.276 8.45829 40.291 8.47729C40.352 8.55329 40.406 8.63829 40.45 8.72729C40.473 8.77429 40.495 8.82128 40.512 8.86828C40.521 8.89328 40.53 8.91828 40.537 8.94328C40.56 9.02728 40.577 9.11228 40.577 9.19128C40.576 9.36528 40.515 9.48627 40.416 9.54427L46.278 6.13728C46.377 6.07928 46.439 5.95828 46.439 5.78428C46.438 5.70528 46.422 5.62028 46.398 5.53628Z" fill="url(#paint16_linear_189_1855)"/>
<path d="M40.0179 8.22531C39.7109 8.04831 39.4629 8.19632 39.4619 8.54932C39.4609 8.90232 39.7069 9.32833 40.0139 9.50533C40.3209 9.68233 40.5739 9.54532 40.5759 9.19232C40.5769 8.83832 40.3249 8.40231 40.0179 8.22531Z" fill="#B4B8C0"/>
<path d="M42.077 8.31216C41.852 7.80316 41.544 7.31616 41.182 6.90516C40.877 6.55816 40.534 6.26416 40.172 6.05416C39.527 5.68116 38.943 5.64715 38.522 5.89115L6.28101 24.5592C6.70201 24.3142 7.286 24.3492 7.931 24.7212C8.294 24.9302 8.63601 25.2242 8.94101 25.5722C9.30301 25.9842 9.61101 26.4701 9.83601 26.9791C10.09 27.5531 10.238 28.1572 10.236 28.7142C10.234 29.4432 9.977 29.9562 9.561 30.1972L41.802 11.5292C42.217 11.2882 42.475 10.7752 42.477 10.0462C42.479 9.49016 42.331 8.88716 42.077 8.31216Z" fill="url(#paint17_linear_189_1855)"/>
<path d="M7.93192 24.7222C6.65092 23.9822 5.61192 24.5742 5.60792 26.0422C5.60392 27.5102 6.63592 29.2972 7.91692 30.0372C9.19392 30.7742 10.2329 30.1822 10.2369 28.7152C10.2409 27.2472 9.20892 25.4592 7.93192 24.7222Z" fill="#A1824A"/>
<path opacity="0.5" d="M7.96393 25.22C7.66493 25.047 7.37593 24.959 7.10693 24.959C6.45193 24.959 6.02593 25.494 6.02393 26.323C6.02093 27.502 6.85493 28.944 7.88193 29.537C8.17993 29.709 8.46793 29.797 8.73593 29.797C9.39093 29.797 9.81693 29.261 9.81893 28.432C9.82293 27.254 8.99093 25.813 7.96393 25.22ZM8.73693 29.656C8.49293 29.656 8.22993 29.575 7.95293 29.415C6.96493 28.844 6.16393 27.457 6.16593 26.323C6.16793 25.569 6.52993 25.1 7.10793 25.1C7.35193 25.1 7.61693 25.181 7.89493 25.342C8.88093 25.912 9.68193 27.298 9.67893 28.432C9.67693 29.187 9.31493 29.656 8.73693 29.656ZM7.96293 25.799C7.74293 25.672 7.53093 25.608 7.33293 25.608C6.84593 25.608 6.52993 26.003 6.52793 26.615C6.52493 27.475 7.13393 28.527 7.88393 28.96C8.10293 29.087 8.31393 29.151 8.51193 29.151C8.99893 29.151 9.31393 28.756 9.31593 28.144C9.31793 27.282 8.71193 26.231 7.96293 25.799ZM8.51193 29.008C8.34193 29.008 8.14893 28.949 7.95393 28.836C7.24293 28.425 6.66693 27.429 6.66993 26.614C6.67193 26.08 6.92593 25.748 7.33293 25.748C7.50293 25.748 7.69693 25.808 7.89293 25.921C8.60193 26.331 9.17693 27.327 9.17393 28.142C9.17293 28.677 8.91893 29.008 8.51193 29.008Z" fill="#A1824A"/>
<path opacity="0.5" d="M7.92504 26.4505C7.47704 26.1915 7.11404 26.3985 7.11304 26.9115C7.11204 27.4245 7.47204 28.0495 7.92004 28.3075C8.36604 28.5655 8.72904 28.3585 8.73104 27.8455C8.73204 27.3335 8.37204 26.7085 7.92504 26.4505Z" fill="#A1824A"/>
<path d="M7.97909 29.9346L7.98209 31.7576L4.44609 33.8116L4.44409 31.9896L7.97909 29.9346Z" fill="#CBD0D8"/>
<path d="M4.44402 31.9891L4.44602 33.8111L2.22002 32.5261L2.21802 30.7031L4.44402 31.9891Z" fill="#A7ABB2"/>
<path d="M2.21802 30.7034L5.75302 28.6494L7.97902 29.9344L4.44402 31.9894L2.21802 30.7034Z" fill="#E2E7F0"/>
<path d="M7.97909 39.1025L7.98209 40.9255L4.44609 42.9805L4.44409 41.1575L7.97909 39.1025Z" fill="#CBD0D8"/>
<path d="M4.44402 41.1571L4.44602 42.9801L2.22002 41.6941L2.21802 39.8721L4.44402 41.1571Z" fill="#A7ABB2"/>
<path d="M2.21802 39.8724L5.75302 37.8174L7.97902 39.1024L4.44402 41.1574L2.21802 39.8724Z" fill="#E2E7F0"/>
<path d="M7.97909 48.2715L7.98209 50.0935L4.44609 52.1485L4.44409 50.3255L7.97909 48.2715Z" fill="#CBD0D8"/>
<path d="M4.44402 50.325L4.44602 52.148L2.22002 50.863L2.21802 49.04L4.44402 50.325Z" fill="#A7ABB2"/>
<path d="M2.21802 49.0403L5.75302 46.9863L7.97902 48.2713L4.44402 50.3253L2.21802 49.0403Z" fill="#E2E7F0"/>
<path d="M7.97909 57.4395L7.98209 59.2625L4.44609 61.3164L4.44409 59.4934L7.97909 57.4395Z" fill="#CBD0D8"/>
<path d="M4.44402 59.493L4.44602 61.316L2.22002 60.031L2.21802 58.208L4.44402 59.493Z" fill="#A7ABB2"/>
<path d="M2.21802 58.2083L5.75302 56.1543L7.97902 57.4393L4.44402 59.4933L2.21802 58.2083Z" fill="#E2E7F0"/>
<path d="M7.97909 66.6074L7.98209 68.4304L4.44609 70.4854L4.44409 68.6624L7.97909 66.6074Z" fill="#CBD0D8"/>
<path d="M4.44402 68.662L4.44602 70.485L2.22002 69.1989L2.21802 67.377L4.44402 68.662Z" fill="#A7ABB2"/>
<path d="M2.21802 67.3773L5.75302 65.3223L7.97902 66.6073L4.44402 68.6623L2.21802 67.3773Z" fill="#E2E7F0"/>
<path d="M7.97909 75.7764L7.98209 77.5984L4.44609 79.6534L4.44409 77.8304L7.97909 75.7764Z" fill="#CBD0D8"/>
<path d="M4.44402 77.8299L4.44602 79.6529L2.22002 78.3679L2.21802 76.5449L4.44402 77.8299Z" fill="#A7ABB2"/>
<path d="M2.21802 76.5452L5.75302 74.4912L7.97902 75.7762L4.44402 77.8302L2.21802 76.5452Z" fill="#E2E7F0"/>
<path d="M2.45493 75.9724C2.14793 75.7954 1.89993 75.9434 1.89893 76.2964C1.89793 76.6494 2.14393 77.0754 2.45093 77.2524C2.75793 77.4294 3.01193 77.2924 3.01293 76.9394C3.01393 76.5864 2.76193 76.1494 2.45493 75.9724Z" fill="#B4B8C0"/>
<path d="M8.71399 73.8844C8.71899 73.8814 8.71999 73.8754 8.72499 73.8724C8.70799 73.3714 8.36599 72.7804 7.93499 72.5264C7.93199 72.5274 7.92799 72.5264 7.92499 72.5284L2.06299 75.9354C2.16299 75.8774 2.30099 75.8844 2.45399 75.9724C2.53599 76.0204 2.61299 76.0884 2.68399 76.1664C2.69999 76.1844 2.71199 76.2054 2.72699 76.2244C2.78799 76.3004 2.84199 76.3854 2.88599 76.4744C2.90899 76.5214 2.93099 76.5674 2.94799 76.6154C2.95699 76.6404 2.96699 76.6654 2.97299 76.6904C2.99599 76.7744 3.01299 76.8594 3.01199 76.9394C3.01199 77.1124 2.94999 77.2344 2.85099 77.2924L8.71399 73.8844Z" fill="url(#paint18_linear_189_1855)"/>
<path d="M2.45493 66.7595C2.14793 66.5825 1.89993 66.7305 1.89893 67.0835C1.89793 67.4365 2.14393 67.8625 2.45093 68.0395C2.75793 68.2165 3.01193 68.0795 3.01293 67.7265C3.01393 67.3735 2.76193 66.9365 2.45493 66.7595Z" fill="#B4B8C0"/>
<path d="M8.71399 64.6715C8.71899 64.6685 8.71999 64.6625 8.72499 64.6595C8.70799 64.1585 8.36599 63.5675 7.93499 63.3135C7.93199 63.3155 7.92799 63.3135 7.92499 63.3155L2.06299 66.7215C2.16299 66.6635 2.30099 66.6705 2.45399 66.7595C2.53599 66.8065 2.61299 66.8755 2.68399 66.9535C2.69999 66.9715 2.71199 66.9925 2.72699 67.0115C2.78799 67.0875 2.84199 67.1725 2.88599 67.2615C2.90899 67.3085 2.93099 67.3545 2.94799 67.4035C2.95699 67.4285 2.96699 67.4535 2.97299 67.4785C2.99599 67.5625 3.01299 67.6475 3.01199 67.7275C3.01199 67.9005 2.94999 68.0225 2.85099 68.0795L8.71399 64.6715Z" fill="url(#paint19_linear_189_1855)"/>
<path d="M2.45493 57.5457C2.14793 57.3687 1.89993 57.5166 1.89893 57.8686C1.89793 58.2216 2.14393 58.6476 2.45093 58.8246C2.75793 59.0016 3.01193 58.8647 3.01293 58.5117C3.01393 58.1587 2.76193 57.7227 2.45493 57.5457Z" fill="#B4B8C0"/>
<path d="M8.71399 55.4576C8.71899 55.4546 8.71999 55.4486 8.72499 55.4456C8.70799 54.9446 8.36599 54.3536 7.93499 54.0996C7.93199 54.1006 7.92799 54.0996 7.92499 54.1016L2.06299 57.5086C2.16299 57.4506 2.30099 57.4576 2.45399 57.5466C2.53599 57.5936 2.61299 57.6626 2.68399 57.7406C2.69999 57.7586 2.71199 57.7796 2.72699 57.7986C2.78799 57.8746 2.84199 57.9596 2.88599 58.0486C2.90899 58.0956 2.93099 58.1416 2.94799 58.1896C2.95699 58.2146 2.96699 58.2396 2.97299 58.2646C2.99599 58.3486 3.01299 58.4336 3.01199 58.5136C3.01199 58.6866 2.94999 58.8086 2.85099 58.8656L8.71399 55.4576Z" fill="url(#paint20_linear_189_1855)"/>
<path d="M2.45493 48.3318C2.14793 48.1548 1.89993 48.3027 1.89893 48.6557C1.89793 49.0087 2.14393 49.4348 2.45093 49.6118C2.75793 49.7888 3.01193 49.6517 3.01293 49.2987C3.01393 48.9457 2.76193 48.5098 2.45493 48.3318Z" fill="#B4B8C0"/>
<path d="M8.71399 46.2437C8.71899 46.2407 8.71999 46.2348 8.72499 46.2318C8.70799 45.7308 8.36599 45.1397 7.93499 44.8857C7.93199 44.8867 7.92799 44.8858 7.92499 44.8878L2.06299 48.2937C2.16299 48.2357 2.30099 48.2428 2.45399 48.3318C2.53599 48.3798 2.61299 48.4478 2.68399 48.5258C2.69999 48.5438 2.71199 48.5647 2.72699 48.5837C2.78799 48.6597 2.84199 48.7447 2.88599 48.8337C2.90899 48.8807 2.93099 48.9267 2.94799 48.9747C2.95699 48.9997 2.96699 49.0247 2.97299 49.0497C2.99599 49.1337 3.01299 49.2187 3.01199 49.2987C3.01199 49.4717 2.94999 49.5937 2.85099 49.6517L8.71399 46.2437Z" fill="url(#paint21_linear_189_1855)"/>
<path d="M2.45493 39.1179C2.14793 38.9409 1.89993 39.0889 1.89893 39.4419C1.89793 39.7949 2.14393 40.2209 2.45093 40.3979C2.75793 40.5749 3.01193 40.4379 3.01293 40.0849C3.01393 39.7319 2.76193 39.2949 2.45493 39.1179Z" fill="#B4B8C0"/>
<path d="M8.71399 37.0298C8.71899 37.0268 8.71999 37.0209 8.72499 37.0179C8.70799 36.5169 8.36599 35.9259 7.93499 35.6719C7.93199 35.6739 7.92799 35.6719 7.92499 35.6739L2.06299 39.0809C2.16299 39.0229 2.30099 39.0299 2.45399 39.1189C2.53599 39.1659 2.61299 39.2349 2.68399 39.3129C2.69999 39.3309 2.71199 39.3518 2.72699 39.3708C2.78799 39.4468 2.84199 39.5318 2.88599 39.6208C2.90899 39.6678 2.93099 39.7138 2.94799 39.7628C2.95699 39.7878 2.96699 39.8129 2.97299 39.8379C2.99599 39.9219 3.01299 40.0069 3.01199 40.0869C3.01199 40.2599 2.94999 40.3819 2.85099 40.4389L8.71399 37.0298Z" fill="url(#paint22_linear_189_1855)"/>
<path d="M2.45493 29.904C2.14793 29.727 1.89993 29.875 1.89893 30.228C1.89793 30.581 2.14393 31.007 2.45093 31.184C2.75793 31.361 3.01193 31.224 3.01293 30.871C3.01393 30.518 2.76193 30.081 2.45493 29.904Z" fill="#B4B8C0"/>
<path d="M8.71399 27.816C8.71899 27.813 8.71999 27.807 8.72499 27.804C8.70799 27.303 8.36599 26.712 7.93499 26.458C7.93199 26.459 7.92799 26.458 7.92499 26.46L2.06299 29.867C2.16299 29.809 2.30099 29.816 2.45399 29.905C2.53599 29.952 2.61299 30.021 2.68399 30.099C2.69999 30.117 2.71199 30.138 2.72699 30.157C2.78799 30.233 2.84199 30.318 2.88599 30.407C2.90899 30.454 2.93099 30.501 2.94799 30.549C2.95699 30.574 2.96699 30.599 2.97299 30.624C2.99599 30.708 3.01299 30.793 3.01199 30.872C3.01199 31.046 2.94999 31.167 2.85099 31.225L8.71399 27.816Z" fill="url(#paint23_linear_189_1855)"/>
<defs>
<linearGradient id="paint0_linear_189_1855" x1="21.5316" y1="66.732" x2="24.7634" y2="72.3297" gradientUnits="userSpaceOnUse">
<stop stop-color="#A1824A"/>
<stop offset="0.71" stop-color="#E4BB7D"/>
</linearGradient>
<linearGradient id="paint1_linear_189_1855" x1="21.5316" y1="57.5175" x2="24.7634" y2="63.1152" gradientUnits="userSpaceOnUse">
<stop stop-color="#A1824A"/>
<stop offset="0.6817" stop-color="#E4BB7D"/>
</linearGradient>
<linearGradient id="paint2_linear_189_1855" x1="21.5316" y1="48.304" x2="24.7634" y2="53.9017" gradientUnits="userSpaceOnUse">
<stop stop-color="#A1824A"/>
<stop offset="0.6817" stop-color="#E4BB7D"/>
<stop offset="1" stop-color="#E4BB7D"/>
</linearGradient>
<linearGradient id="paint3_linear_189_1855" x1="21.5316" y1="39.0905" x2="24.7634" y2="44.6882" gradientUnits="userSpaceOnUse">
<stop stop-color="#A1824A"/>
<stop offset="0.6817" stop-color="#E4BB7D"/>
</linearGradient>
<linearGradient id="paint4_linear_189_1855" x1="21.5316" y1="29.877" x2="24.7634" y2="35.4747" gradientUnits="userSpaceOnUse">
<stop stop-color="#A1824A"/>
<stop offset="0.5187" stop-color="#E4BB7D"/>
</linearGradient>
<linearGradient id="paint5_linear_189_1855" x1="21.5316" y1="20.6635" x2="24.7634" y2="26.2612" gradientUnits="userSpaceOnUse">
<stop stop-color="#A1824A"/>
<stop offset="0.5265" stop-color="#E4BB7D"/>
</linearGradient>
<linearGradient id="paint6_linear_189_1855" x1="42.7459" y1="52.4328" x2="43.5399" y2="53.8081" gradientUnits="userSpaceOnUse">
<stop stop-color="#E2E7F0"/>
<stop offset="0.4023" stop-color="#DDE2EB"/>
<stop offset="0.7184" stop-color="#CDD2DA"/>
<stop offset="1" stop-color="#BCC0C8"/>
</linearGradient>
<linearGradient id="paint7_linear_189_1855" x1="23.2132" y1="60.7989" x2="26.4982" y2="66.4887" gradientUnits="userSpaceOnUse">
<stop stop-color="#E4BB7D"/>
<stop offset="0.29" stop-color="#E4BB7D"/>
<stop offset="1" stop-color="#A1824A"/>
</linearGradient>
<linearGradient id="paint8_linear_189_1855" x1="42.7458" y1="43.2194" x2="43.5398" y2="44.5946" gradientUnits="userSpaceOnUse">
<stop stop-color="#E2E7F0"/>
<stop offset="0.4023" stop-color="#DDE2EB"/>
<stop offset="0.7184" stop-color="#CDD2DA"/>
<stop offset="1" stop-color="#BCC0C8"/>
</linearGradient>
<linearGradient id="paint9_linear_189_1855" x1="23.2132" y1="51.585" x2="26.4982" y2="57.2749" gradientUnits="userSpaceOnUse">
<stop stop-color="#E4BB7D"/>
<stop offset="0.3183" stop-color="#E4BB7D"/>
<stop offset="0.63" stop-color="#E4BB7D"/>
<stop offset="0.97" stop-color="#A1824A"/>
</linearGradient>
<linearGradient id="paint10_linear_189_1855" x1="42.7459" y1="34.0049" x2="43.5398" y2="35.38" gradientUnits="userSpaceOnUse">
<stop stop-color="#E2E7F0"/>
<stop offset="0.4023" stop-color="#DDE2EB"/>
<stop offset="0.7184" stop-color="#CDD2DA"/>
<stop offset="1" stop-color="#BCC0C8"/>
</linearGradient>
<linearGradient id="paint11_linear_189_1855" x1="23.2132" y1="42.3705" x2="26.4982" y2="48.0604" gradientUnits="userSpaceOnUse">
<stop stop-color="#E4BB7D"/>
<stop offset="0.3183" stop-color="#E4BB7D"/>
<stop offset="1" stop-color="#A1824A"/>
</linearGradient>
<linearGradient id="paint12_linear_189_1855" x1="42.7459" y1="24.7913" x2="43.5399" y2="26.1666" gradientUnits="userSpaceOnUse">
<stop stop-color="#E2E7F0"/>
<stop offset="0.4023" stop-color="#DDE2EB"/>
<stop offset="0.7184" stop-color="#CDD2DA"/>
<stop offset="1" stop-color="#BCC0C8"/>
</linearGradient>
<linearGradient id="paint13_linear_189_1855" x1="23.2132" y1="33.1573" x2="26.4982" y2="38.8472" gradientUnits="userSpaceOnUse">
<stop stop-color="#E4BB7D"/>
<stop offset="0.3183" stop-color="#E4BB7D"/>
<stop offset="1" stop-color="#A1824A"/>
</linearGradient>
<linearGradient id="paint14_linear_189_1855" x1="42.7459" y1="15.5779" x2="43.5398" y2="16.9531" gradientUnits="userSpaceOnUse">
<stop stop-color="#E2E7F0"/>
<stop offset="0.4023" stop-color="#DDE2EB"/>
<stop offset="0.7184" stop-color="#CDD2DA"/>
<stop offset="1" stop-color="#BCC0C8"/>
</linearGradient>
<linearGradient id="paint15_linear_189_1855" x1="23.2132" y1="23.9435" x2="26.4982" y2="29.6334" gradientUnits="userSpaceOnUse">
<stop stop-color="#E4BB7D"/>
<stop offset="0.4813" stop-color="#E4BB7D"/>
<stop offset="1" stop-color="#A1824A"/>
</linearGradient>
<linearGradient id="paint16_linear_189_1855" x1="42.7459" y1="6.36438" x2="43.5398" y2="7.73958" gradientUnits="userSpaceOnUse">
<stop stop-color="#E2E7F0"/>
<stop offset="0.4023" stop-color="#DDE2EB"/>
<stop offset="0.7184" stop-color="#CDD2DA"/>
<stop offset="1" stop-color="#BCC0C8"/>
</linearGradient>
<linearGradient id="paint17_linear_189_1855" x1="23.2132" y1="14.7304" x2="26.4982" y2="20.4203" gradientUnits="userSpaceOnUse">
<stop stop-color="#E4BB7D"/>
<stop offset="0.4735" stop-color="#E4BB7D"/>
<stop offset="1" stop-color="#A1824A"/>
</linearGradient>
<linearGradient id="paint18_linear_189_1855" x1="5.07409" y1="74.1746" x2="5.86809" y2="75.5499" gradientUnits="userSpaceOnUse">
<stop stop-color="#E2E7F0"/>
<stop offset="0.4023" stop-color="#DDE2EB"/>
<stop offset="0.7184" stop-color="#CDD2DA"/>
<stop offset="1" stop-color="#BCC0C8"/>
</linearGradient>
<linearGradient id="paint19_linear_189_1855" x1="5.07409" y1="64.9611" x2="5.86809" y2="66.3363" gradientUnits="userSpaceOnUse">
<stop stop-color="#E2E7F0"/>
<stop offset="0.4023" stop-color="#DDE2EB"/>
<stop offset="0.7184" stop-color="#CDD2DA"/>
<stop offset="1" stop-color="#BCC0C8"/>
</linearGradient>
<linearGradient id="paint20_linear_189_1855" x1="5.07409" y1="55.7476" x2="5.86809" y2="57.1228" gradientUnits="userSpaceOnUse">
<stop stop-color="#E2E7F0"/>
<stop offset="0.4023" stop-color="#DDE2EB"/>
<stop offset="0.7184" stop-color="#CDD2DA"/>
<stop offset="1" stop-color="#BCC0C8"/>
</linearGradient>
<linearGradient id="paint21_linear_189_1855" x1="5.07409" y1="46.534" x2="5.86809" y2="47.9093" gradientUnits="userSpaceOnUse">
<stop stop-color="#E2E7F0"/>
<stop offset="0.4023" stop-color="#DDE2EB"/>
<stop offset="0.7184" stop-color="#CDD2DA"/>
<stop offset="1" stop-color="#BCC0C8"/>
</linearGradient>
<linearGradient id="paint22_linear_189_1855" x1="5.07409" y1="37.3196" x2="5.86809" y2="38.6948" gradientUnits="userSpaceOnUse">
<stop stop-color="#E2E7F0"/>
<stop offset="0.4023" stop-color="#DDE2EB"/>
<stop offset="0.7184" stop-color="#CDD2DA"/>
<stop offset="1" stop-color="#BCC0C8"/>
</linearGradient>
<linearGradient id="paint23_linear_189_1855" x1="5.07409" y1="28.1061" x2="5.86809" y2="29.4813" gradientUnits="userSpaceOnUse">
<stop stop-color="#E2E7F0"/>
<stop offset="0.4023" stop-color="#DDE2EB"/>
<stop offset="0.7184" stop-color="#CDD2DA"/>
<stop offset="1" stop-color="#BCC0C8"/>
</linearGradient>
</defs>
</svg>
