<?xml version="1.0" standalone="no"?>
<!DOCTYPE svg PUBLIC "-//W3C//DTD SVG 20010904//EN"
 "http://www.w3.org/TR/2001/REC-SVG-20010904/DTD/svg10.dtd">
<svg version="1.0" xmlns="http://www.w3.org/2000/svg"
 width="460.000000pt" height="394.000000pt" viewBox="0 0 460.000000 394.000000"
 preserveAspectRatio="xMidYMid meet">

<g transform="translate(0.000000,394.000000) scale(0.100000,-0.100000)"
fill="#000000" stroke="none">
<path d="M2058 3914 c-4 -3 -56 -11 -115 -15 -152 -13 -273 -35 -423 -78 -19
-5 -46 -13 -60 -16 -25 -7 -42 -13 -92 -34 -16 -6 -38 -15 -50 -20 -82 -31
-235 -111 -317 -164 -274 -177 -509 -406 -765 -746 -59 -79 -128 -169 -152
-200 l-43 -56 -17 -477 -17 -477 27 -55 c15 -31 40 -65 56 -76 36 -26 104 -50
141 -50 26 0 33 -8 67 -77 22 -43 53 -100 71 -127 29 -47 31 -56 31 -141 0
-106 16 -170 68 -270 40 -77 143 -187 205 -220 20 -11 37 -25 37 -32 0 -33 37
-114 77 -171 118 -166 368 -286 718 -347 114 -19 609 -47 613 -34 3 6 8 6 15
0 7 -5 80 -12 162 -16 138 -6 160 -5 280 19 383 78 744 204 851 298 21 18 84
94 142 168 l104 135 66 8 c155 18 284 70 365 148 28 27 59 49 68 49 25 0 162
54 213 84 118 69 175 195 198 444 13 140 0 359 -31 522 -36 191 -52 277 -67
360 -42 239 -196 575 -355 775 -221 279 -428 444 -766 613 -283 142 -589 238
-838 264 -121 12 -458 21 -467 12z m557 -98 c425 -79 772 -232 1085 -480 165
-131 337 -312 440 -466 44 -65 160 -285 160 -304 0 -5 -29 40 -65 100 -97 162
-155 236 -294 374 -193 191 -390 335 -622 451 -388 195 -738 270 -1184 256
-196 -7 -319 -23 -465 -61 -407 -107 -808 -320 -1075 -572 -85 -80 -185 -159
-185 -146 0 6 38 57 84 114 317 394 819 659 1406 742 144 21 586 15 715 -8z
m-1515 -665 c-297 -106 -560 -245 -703 -371 -59 -52 -122 -134 -170 -220 -46
-82 -60 -123 -102 -284 -19 -70 -36 -131 -39 -134 -7 -7 3 231 14 335 5 48 18
100 31 125 31 61 178 203 284 273 168 112 426 224 665 290 128 35 138 29 20
-14z m146 -993 c109 -180 260 -346 404 -445 181 -123 449 -223 600 -223 l55 0
-50 32 c-96 59 -225 191 -275 279 l-23 42 64 -45 c101 -71 206 -124 320 -162
126 -42 205 -56 324 -56 l90 0 -50 -24 c-33 -15 -61 -38 -81 -67 -67 -94 -69
-102 -69 -249 0 -116 3 -145 23 -203 27 -77 71 -141 122 -175 75 -51 188 -11
254 91 61 93 80 164 80 312 0 150 -13 204 -70 290 -35 53 -69 80 -124 95 -23
7 -22 8 13 15 28 5 64 1 135 -18 98 -26 216 -45 306 -50 46 -2 50 -4 59 -32 5
-16 9 -86 10 -155 0 -122 -11 -195 -47 -315 -8 -27 -14 -50 -13 -52 13 -12
210 76 221 99 3 7 4 -45 2 -117 l-4 -130 34 66 c18 37 44 106 58 155 32 116
50 156 96 224 45 66 100 117 136 126 14 4 50 4 80 2 76 -6 118 -42 169 -143
39 -77 40 -81 40 -185 0 -102 -1 -109 -38 -182 -53 -109 -132 -172 -254 -203
-55 -14 -68 -14 -125 -1 -35 8 -70 17 -79 21 -11 4 -23 -10 -45 -57 -99 -212
-253 -347 -490 -432 -202 -72 -345 -105 -689 -158 -105 -16 -641 -15 -750 1
-380 57 -605 134 -739 252 -113 100 -146 188 -153 413 l-6 158 31 -7 c18 -3
36 -4 41 0 6 3 -12 50 -43 113 -30 59 -64 140 -76 179 -19 66 -50 243 -44 251
1 2 23 -13 50 -33 72 -55 224 -125 224 -103 0 5 -13 47 -29 93 -17 46 -37 117
-45 159 -25 118 -19 382 10 479 3 9 15 22 27 29 27 15 268 106 284 107 6 1 29
-27 49 -61z m3189 -151 c42 -133 57 -239 62 -457 3 -146 1 -225 -9 -274 -12
-65 -13 -50 -13 215 -1 255 -3 294 -23 387 -12 56 -33 130 -46 165 -13 34 -27
71 -31 82 -4 11 2 7 14 -10 12 -16 32 -65 46 -108z m-1671 -301 c-23 -7 -31
-3 -63 28 l-36 36 63 -27 c59 -27 61 -28 36 -37z m-2359 -260 c28 -81 83 -188
123 -240 64 -84 67 -92 18 -46 -126 118 -197 260 -227 457 -11 74 -11 82 7
105 l18 25 22 -126 c12 -69 29 -148 39 -175z m2268 -12 c52 -52 53 -187 1
-221 -87 -56 -145 144 -67 229 22 24 36 23 66 -8z m-2050 -444 c56 -34 57 -35
57 -81 0 -25 3 -80 6 -122 5 -57 4 -77 -5 -77 -26 0 -122 105 -151 164 -30 61
-50 141 -50 199 l0 30 43 -39 c23 -22 68 -55 100 -74z"/>
<path d="M1040 1643 c146 -54 257 -83 345 -89 l80 -6 -30 21 c-77 54 -299 111
-424 110 l-66 0 95 -36z"/>
<path d="M1195 1521 c-139 -63 -188 -339 -96 -537 87 -187 252 -199 340 -24
42 84 54 156 49 281 -4 96 -8 114 -37 174 -56 113 -153 153 -256 106z m-26
-117 c50 -35 67 -132 30 -178 -41 -52 -98 -18 -114 66 -8 43 9 103 33 118 23
13 24 13 51 -6z"/>
<path d="M3913 1297 c-24 -6 -43 -14 -43 -19 0 -4 -8 -8 -19 -8 -31 0 -120
-104 -157 -185 -48 -104 -46 -114 14 -69 28 22 36 24 43 13 19 -30 9 -68 -27
-104 -63 -63 -12 -93 59 -34 54 45 71 82 63 141 -7 54 -8 53 46 16 33 -23 38
-23 38 1 0 25 -55 78 -97 93 -18 7 -33 14 -33 18 1 11 79 70 138 103 82 45 72
57 -25 34z"/>
<path d="M1764 645 c-3 -8 0 -30 6 -50 29 -87 126 -148 236 -149 120 0 234 85
234 176 0 34 -3 38 -25 38 -18 0 -29 -9 -44 -37 -38 -75 -99 -108 -186 -101
-64 5 -117 41 -150 101 -21 39 -60 51 -71 22z"/>
</g>
</svg>
