<svg width="440" height="489" viewBox="0 0 440 489" fill="none" xmlns="http://www.w3.org/2000/svg">
<g clip-path="url(#clip0_21_2)">
<path fill-rule="evenodd" clip-rule="evenodd" d="M257.182 277.19C257.182 280.513 255.861 283.7 253.51 286.05C251.159 288.399 247.97 289.719 244.645 289.719C241.32 289.719 238.131 288.399 235.78 286.05C233.429 283.7 232.108 280.513 232.108 277.19C232.064 271.897 233.07 266.648 235.066 261.746C237.063 256.843 240.011 252.384 243.741 248.626C247.47 244.868 251.908 241.885 256.796 239.85C261.685 237.814 266.929 236.766 272.226 236.766C277.522 236.766 282.766 237.814 287.655 239.85C292.543 241.885 296.981 244.868 300.71 248.626C304.44 252.384 307.388 256.843 309.385 261.746C311.381 266.648 312.387 271.897 312.343 277.19H312.392C312.392 278.836 312.068 280.465 311.438 281.985C310.808 283.505 309.884 284.886 308.72 286.05C307.556 287.213 306.174 288.136 304.653 288.766C303.132 289.395 301.501 289.719 299.855 289.719C298.209 289.719 296.579 289.395 295.057 288.766C293.536 288.136 292.154 287.213 290.99 286.05C289.826 284.886 288.903 283.505 288.273 281.985C287.643 280.465 287.318 278.836 287.318 277.19H287.367C287.314 273.225 285.7 269.44 282.876 266.655C280.051 263.869 276.243 262.308 272.274 262.308C268.306 262.308 264.498 263.869 261.673 266.655C258.848 269.44 257.235 273.225 257.182 277.19Z" fill="#C197C5"/>
<path fill-rule="evenodd" clip-rule="evenodd" d="M110.763 208.684V318.109C110.763 339.814 128.466 357.498 150.173 357.498H289.846C311.564 357.498 329.259 339.803 329.259 318.109V208.684C329.259 186.979 311.553 169.295 289.846 169.295H150.162C128.455 169.298 110.763 186.99 110.763 208.684ZM83.5201 151.248C83.5199 152.424 83.9279 153.564 84.6745 154.473C85.4211 155.383 86.4601 156.005 87.6145 156.235C88.7689 156.465 89.9672 156.287 91.0053 155.733C92.0434 155.178 92.857 154.281 93.3076 153.195C93.7581 152.108 93.8177 150.899 93.4761 149.773C93.1346 148.647 92.413 147.675 91.4344 147.021C90.4558 146.368 89.2807 146.073 88.1094 146.188C86.938 146.304 85.8429 146.821 85.0105 147.653C84.5372 148.124 84.1619 148.685 83.9061 149.302C83.6503 149.919 83.5191 150.58 83.5201 151.248ZM114.338 156.65C114.338 157.825 114.746 158.965 115.493 159.873C116.239 160.782 117.278 161.404 118.432 161.633C119.586 161.862 120.784 161.685 121.821 161.13C122.858 160.576 123.671 159.679 124.121 158.592C124.571 157.506 124.63 156.297 124.288 155.172C123.946 154.047 123.225 153.076 122.246 152.423C121.268 151.77 120.093 151.476 118.923 151.592C117.752 151.708 116.657 152.226 115.826 153.057C115.353 153.529 114.979 154.089 114.723 154.705C114.468 155.322 114.337 155.982 114.338 156.65ZM100.471 113.858C100.47 112.682 100.878 111.542 101.624 110.632C102.37 109.722 103.409 109.099 104.564 108.869C105.718 108.639 106.916 108.816 107.955 109.37C108.993 109.924 109.807 110.821 110.258 111.908C110.709 112.994 110.769 114.204 110.427 115.329C110.086 116.455 109.365 117.428 108.386 118.082C107.407 118.736 106.232 119.03 105.061 118.915C103.889 118.8 102.794 118.282 101.962 117.451C101.489 116.979 101.114 116.419 100.858 115.803C100.602 115.186 100.471 114.526 100.471 113.858ZM121.959 131.637C122.791 130.806 123.885 130.289 125.056 130.174C126.227 130.06 127.401 130.354 128.379 131.007C129.357 131.66 130.078 132.632 130.419 133.757C130.76 134.882 130.701 136.091 130.25 137.177C129.8 138.263 128.987 139.159 127.95 139.714C126.912 140.268 125.715 140.445 124.561 140.216C123.407 139.986 122.369 139.364 121.623 138.456C120.876 137.547 120.468 136.408 120.468 135.232C120.468 134.564 120.599 133.903 120.855 133.286C121.111 132.669 121.486 132.109 121.959 131.637ZM209.149 20.6196C208.352 20.6209 207.579 20.8983 206.964 21.4047C206.348 21.9111 205.927 22.6151 205.772 23.3969C205.617 24.1787 205.739 24.9899 206.115 25.6924C206.492 26.3949 207.1 26.9452 207.837 27.2496C208.574 27.5541 209.394 27.5938 210.157 27.362C210.92 27.1302 211.579 26.6413 212.022 25.9785C212.465 25.3158 212.664 24.5201 212.585 23.727C212.507 22.9339 212.156 22.1924 211.592 21.6289C211.272 21.3081 210.891 21.0537 210.472 20.8805C210.052 20.7073 209.603 20.6186 209.149 20.6196ZM205.487 41.5106C204.688 41.5107 203.914 41.7875 203.296 42.294C202.679 42.8005 202.256 43.5052 202.1 44.2882C201.944 45.0712 202.065 45.884 202.441 46.5881C202.818 47.2922 203.427 47.8441 204.165 48.1498C204.903 48.4554 205.724 48.4959 206.489 48.2644C207.253 48.0329 207.914 47.5436 208.358 46.88C208.802 46.2163 209.002 45.4193 208.924 44.6248C208.846 43.8303 208.495 43.0874 207.93 42.5226C207.61 42.2006 207.229 41.9454 206.81 41.7717C206.391 41.5979 205.941 41.5092 205.487 41.5106ZM234.513 32.1178C235.311 32.119 236.083 32.3964 236.699 32.9028C237.314 33.4092 237.736 34.1133 237.89 34.8951C238.045 35.6769 237.924 36.4881 237.547 37.1906C237.17 37.8931 236.562 38.4434 235.825 38.7478C235.088 39.0522 234.268 39.0919 233.505 38.8602C232.742 38.6284 232.083 38.1395 231.64 37.4767C231.198 36.8139 230.999 36.0182 231.077 35.2251C231.155 34.4321 231.506 33.6906 232.07 33.1271C232.39 32.8045 232.77 32.5485 233.19 32.3739C233.609 32.1992 234.059 32.1094 234.513 32.1097V32.1178ZM222.454 46.6655C223.017 47.2293 223.366 47.9705 223.443 48.7629C223.521 49.5553 223.321 50.35 222.877 51.0116C222.434 51.6732 221.775 52.1609 221.013 52.3916C220.25 52.6224 219.432 52.5818 218.696 52.277C217.96 51.9722 217.352 51.4219 216.977 50.7198C216.601 50.0177 216.48 49.2072 216.635 48.4262C216.79 47.6453 217.212 46.9422 217.827 46.4367C218.442 45.9311 219.214 45.6544 220.011 45.6535C220.465 45.6527 220.914 45.7417 221.334 45.9154C221.753 46.0891 222.134 46.344 222.454 46.6655ZM278.479 444.931C278.479 446.804 277.829 448.619 276.64 450.067C275.451 451.515 273.797 452.506 271.959 452.871C270.12 453.237 268.212 452.954 266.559 452.071C264.906 451.188 263.611 449.76 262.894 448.029C262.177 446.299 262.082 444.373 262.626 442.581C263.17 440.789 264.319 439.24 265.877 438.2C267.436 437.159 269.307 436.69 271.172 436.874C273.037 437.058 274.781 437.882 276.106 439.206C276.86 439.958 277.458 440.85 277.865 441.833C278.272 442.816 278.481 443.87 278.479 444.934V444.931ZM229.399 453.537C229.399 455.41 228.749 457.225 227.56 458.673C226.371 460.121 224.716 461.112 222.878 461.477C221.04 461.843 219.132 461.56 217.479 460.677C215.826 459.794 214.531 458.366 213.813 456.635C213.096 454.905 213.002 452.979 213.546 451.187C214.09 449.395 215.239 447.846 216.797 446.805C218.355 445.765 220.226 445.296 222.092 445.48C223.957 445.664 225.701 446.488 227.026 447.812C227.779 448.563 228.376 449.456 228.783 450.438C229.191 451.421 229.4 452.474 229.399 453.537ZM251.478 385.386C251.477 383.513 250.827 381.699 249.638 380.251C248.448 378.804 246.794 377.813 244.955 377.448C243.117 377.083 241.209 377.367 239.557 378.25C237.904 379.133 236.609 380.562 235.892 382.292C235.175 384.023 235.081 385.948 235.625 387.74C236.169 389.532 237.319 391.08 238.877 392.121C240.435 393.161 242.306 393.63 244.171 393.446C246.036 393.262 247.78 392.438 249.105 391.114C249.86 390.363 250.459 389.471 250.867 388.488C251.275 387.505 251.485 386.451 251.483 385.386H251.478ZM217.264 413.706C215.938 412.382 214.195 411.558 212.331 411.375C210.466 411.192 208.596 411.66 207.038 412.701C205.48 413.741 204.332 415.289 203.788 417.081C203.245 418.873 203.34 420.798 204.057 422.528C204.774 424.258 206.069 425.685 207.722 426.568C209.374 427.45 211.282 427.732 213.119 427.367C214.957 427.001 216.611 426.01 217.799 424.562C218.987 423.115 219.637 421.3 219.636 419.428C219.637 418.365 219.428 417.312 219.021 416.33C218.614 415.348 218.017 414.456 217.264 413.706ZM210.276 0H218.442V12.5644L212.567 18.4491C211.188 17.6135 209.551 17.3117 207.964 17.6006C206.377 17.8896 204.952 18.7493 203.956 20.0173C202.961 21.2853 202.465 22.8738 202.562 24.4826C202.658 26.0913 203.342 27.6089 204.482 28.7485C205.622 29.8881 207.141 30.5708 208.751 30.6676C210.36 30.7644 211.95 30.2685 213.219 29.2738C214.487 28.279 215.348 26.8542 215.637 25.2686C215.926 23.6831 215.624 22.0466 214.788 20.6685L218.442 17.0166V29.7899L208.902 39.313C207.525 38.4794 205.889 38.1788 204.305 38.4681C202.721 38.7573 201.298 39.6163 200.304 40.8828C199.311 42.1493 198.816 43.7356 198.913 45.342C199.009 46.9484 199.692 48.4637 200.83 49.6017C201.969 50.7396 203.485 51.4215 205.093 51.5184C206.7 51.6152 208.287 51.1205 209.555 50.1275C210.822 49.1345 211.681 47.7121 211.971 46.129C212.26 44.5459 211.959 42.9116 211.125 41.535L218.442 34.2232V42.7043C216.879 43.0883 215.51 44.031 214.595 45.3544C213.68 46.6778 213.282 48.2903 213.475 49.8873C213.669 51.4843 214.441 52.9552 215.645 54.0221C216.85 55.089 218.404 55.6781 220.014 55.6781C221.623 55.6781 223.177 55.089 224.382 54.0221C225.586 52.9552 226.358 51.4843 226.552 49.8873C226.745 48.2903 226.347 46.6778 225.432 45.3544C224.517 44.031 223.149 43.0883 221.585 42.7043V24.8548L228.875 32.1422C228.036 33.5215 227.733 35.1598 228.021 36.7476C228.309 38.3355 229.17 39.7627 230.439 40.7596C231.709 41.7566 233.3 42.2541 234.912 42.1583C236.524 42.0624 238.045 41.3798 239.188 40.2394C240.33 39.099 241.015 37.5799 241.113 35.9691C241.211 34.3583 240.715 32.7675 239.719 31.4973C238.723 30.2271 237.296 29.3656 235.707 29.0755C234.119 28.7854 232.479 29.0868 231.098 29.9229L221.596 20.4134V0H229.741C243.111 0 254.049 10.9338 254.049 24.2932V43.7299C254.03 50.1671 251.463 56.3354 246.908 60.8872C242.354 65.439 236.182 68.0045 229.741 68.0231H227.569V88.4664H299.076C352.191 88.4664 395.649 131.895 395.649 184.977V223.11H402.191C422.989 223.11 440.005 240.113 440.005 260.901V293.287C440.005 314.072 422.989 331.078 402.191 331.078H395.649V392.481C395.65 400.32 394.69 408.13 392.79 415.735H278.973L256.628 393.401C258.587 390.168 259.293 386.33 258.614 382.611C257.934 378.893 255.916 375.552 252.939 373.22C249.963 370.888 246.235 369.726 242.46 369.953C238.685 370.181 235.124 371.782 232.45 374.455C229.775 377.127 228.173 380.686 227.945 384.459C227.718 388.232 228.881 391.958 231.214 394.932C233.548 397.907 236.891 399.924 240.611 400.603C244.332 401.282 248.172 400.576 251.407 398.618L268.532 415.733H226.578C225.676 412.062 223.459 408.849 220.348 406.7C217.237 404.551 213.446 403.615 209.691 404.07C205.936 404.524 202.478 406.337 199.97 409.165C197.461 411.994 196.076 415.643 196.076 419.422C196.076 423.202 197.461 426.851 199.97 429.679C202.478 432.508 205.936 434.321 209.691 434.775C213.446 435.229 217.237 434.293 220.348 432.145C223.459 429.996 225.676 426.783 226.578 423.112H246.518L229.328 440.292C226.093 438.335 222.252 437.63 218.533 438.311C214.813 438.991 211.471 441.008 209.138 443.983C206.805 446.957 205.643 450.683 205.871 454.455C206.099 458.227 207.701 461.786 210.375 464.458C213.049 467.13 216.61 468.732 220.385 468.959C224.159 469.187 227.887 468.026 230.863 465.694C233.839 463.363 235.858 460.023 236.539 456.306C237.219 452.588 236.514 448.75 234.557 445.517L256.97 423.12H286.995L278.411 431.696C275.176 429.739 271.335 429.032 267.615 429.712C263.894 430.391 260.552 432.408 258.218 435.382C255.884 438.357 254.722 442.082 254.949 445.855C255.177 449.628 256.779 453.187 259.453 455.86C262.128 458.532 265.689 460.134 269.464 460.361C273.239 460.589 276.967 459.427 279.943 457.094C282.92 454.762 284.938 451.421 285.618 447.703C286.297 443.985 285.591 440.147 283.632 436.914L297.434 423.12H390.632C377.742 461.307 341.494 489 299.079 489H140.929C87.8149 489 44.3567 445.569 44.3567 392.487V331.083H37.8141C17.0162 331.083 0 314.078 0 293.287V260.901C0 240.11 17.0162 223.11 37.8141 223.11H44.3567V184.977C44.3473 168.348 48.6738 152.004 56.9098 137.555H71.6239L80.2895 146.218C79.0628 148.246 78.6216 150.652 79.0492 152.983C79.4768 155.314 80.7437 157.407 82.6105 158.868C84.4773 160.329 86.8148 161.057 89.1815 160.913C91.5483 160.769 93.7804 159.764 95.4564 158.088C97.1323 156.412 98.136 154.18 98.2779 151.815C98.4199 149.449 97.6902 147.114 96.2267 145.249C94.7632 143.385 92.6673 142.12 90.3347 141.695C88.0021 141.27 85.5944 141.713 83.5662 142.94L78.1855 137.555H97.0397L111.116 151.619C109.885 153.65 109.441 156.061 109.867 158.396C110.294 160.732 111.562 162.83 113.431 164.295C115.3 165.76 117.642 166.49 120.013 166.347C122.384 166.205 124.621 165.199 126.301 163.52C127.98 161.841 128.987 159.606 129.13 157.236C129.272 154.867 128.542 152.526 127.076 150.658C125.61 148.79 123.51 147.523 121.173 147.097C118.836 146.671 116.424 147.115 114.393 148.345L103.588 137.555H116.111C116.678 139.858 118.069 141.874 120.021 143.222C121.974 144.57 124.353 145.157 126.709 144.872C129.065 144.587 131.235 143.449 132.809 141.674C134.383 139.899 135.252 137.609 135.252 135.238C135.252 132.866 134.383 130.576 132.809 128.801C131.235 127.026 129.065 125.888 126.709 125.603C124.353 125.318 121.974 125.905 120.021 127.253C118.069 128.601 116.678 130.617 116.111 132.921H89.7641L100.52 122.177C102.551 123.405 104.962 123.848 107.297 123.422C109.632 122.995 111.73 121.728 113.195 119.861C114.659 117.994 115.389 115.656 115.246 113.288C115.103 110.919 114.097 108.686 112.419 107.008C110.74 105.33 108.505 104.325 106.135 104.182C103.766 104.039 101.426 104.769 99.5574 106.232C97.6891 107.696 96.4218 109.793 95.995 112.127C95.5681 114.461 96.0112 116.87 97.2406 118.899L83.2106 132.915H59.7251C76.9557 106.226 106.962 88.4664 140.938 88.4664H212.445V68.0258H210.273C196.903 68.0258 185.962 57.092 185.962 43.7299V24.2932C185.962 10.9338 196.905 0 210.276 0Z" fill="#B586BB"/>
<path fill-rule="evenodd" clip-rule="evenodd" d="M278.479 444.934C278.479 446.807 277.829 448.622 276.64 450.07C275.451 451.518 273.797 452.509 271.959 452.874C270.12 453.24 268.212 452.957 266.559 452.074C264.906 451.191 263.611 449.762 262.894 448.032C262.177 446.301 262.082 444.376 262.626 442.584C263.17 440.791 264.319 439.243 265.877 438.202C267.436 437.162 269.307 436.693 271.172 436.877C273.037 437.06 274.781 437.885 276.106 439.209C276.86 439.96 277.457 440.852 277.864 441.835C278.271 442.817 278.48 443.87 278.479 444.934ZM229.399 453.537C229.399 455.41 228.749 457.225 227.56 458.673C226.371 460.121 224.716 461.112 222.878 461.477C221.04 461.843 219.132 461.56 217.479 460.677C215.826 459.794 214.531 458.366 213.813 456.635C213.096 454.905 213.002 452.979 213.546 451.187C214.09 449.395 215.239 447.846 216.797 446.805C218.355 445.765 220.226 445.296 222.092 445.48C223.957 445.664 225.701 446.488 227.026 447.812C227.779 448.563 228.376 449.456 228.783 450.438C229.191 451.421 229.4 452.474 229.399 453.537ZM242.025 393.371C244.883 392.009 247.658 390.721 250.351 389.508C249.518 390.918 248.275 392.042 246.789 392.732C245.302 393.422 243.641 393.645 242.025 393.371ZM217.258 413.706C215.933 412.382 214.19 411.558 212.325 411.375C210.461 411.192 208.59 411.66 207.032 412.701C205.475 413.741 204.326 415.289 203.783 417.081C203.239 418.873 203.334 420.798 204.051 422.528C204.769 424.258 206.064 425.685 207.716 426.568C209.369 427.45 211.276 427.732 213.114 427.367C214.951 427.001 216.605 426.01 217.794 424.562C218.982 423.115 219.631 421.3 219.631 419.428C219.633 418.365 219.424 417.313 219.018 416.331C218.612 415.349 218.016 414.457 217.263 413.706H217.258ZM218.056 405.393C223.509 402.56 228.714 399.911 233.669 397.443C236.146 399.434 239.177 400.616 242.349 400.827C245.521 401.039 248.681 400.271 251.402 398.626L268.527 415.741H226.578C226.024 413.489 224.971 411.39 223.497 409.599C222.023 407.808 220.166 406.37 218.062 405.393H218.056ZM390.618 423.12C377.731 461.307 341.481 489 299.065 489H140.929C87.8148 489 44.3567 445.569 44.3567 392.487V331.083H37.8141C17.6678 331.083 1.0859 315.13 0.0488586 295.241C26.4826 301.481 54.5073 319.583 61.0037 366.983C74.0156 461.915 109.623 463.082 174.449 428.53C182.097 424.452 189.367 420.573 196.259 416.894C196.122 417.732 196.053 418.581 196.053 419.43C196.029 423.227 197.403 426.9 199.914 429.749C202.425 432.599 205.897 434.425 209.669 434.881C213.44 435.337 217.248 434.39 220.366 432.222C223.485 430.053 225.695 426.813 226.578 423.12H246.518L229.328 440.3C226.091 438.345 222.25 437.643 218.531 438.325C214.811 439.008 211.47 441.028 209.139 444.004C206.809 446.98 205.649 450.707 205.88 454.479C206.11 458.252 207.715 461.809 210.392 464.479C213.068 467.15 216.63 468.748 220.405 468.973C224.18 469.198 227.907 468.033 230.881 465.699C233.856 463.365 235.872 460.023 236.549 456.305C237.226 452.586 236.518 448.749 234.557 445.517L256.97 423.12H286.995L278.411 431.696C275.176 429.738 271.335 429.032 267.615 429.712C263.894 430.391 260.552 432.408 258.218 435.382C255.884 438.357 254.722 442.082 254.949 445.855C255.177 449.628 256.779 453.187 259.453 455.86C262.128 458.532 265.689 460.134 269.464 460.361C273.239 460.589 276.967 459.427 279.943 457.094C282.92 454.762 284.938 451.421 285.618 447.703C286.297 443.985 285.591 440.147 283.632 436.914L297.434 423.12H390.618ZM436.264 244.552C438.732 249.648 440.012 255.236 440.008 260.898V293.287C440.008 314.072 422.992 331.078 402.194 331.078H395.651V392.481C395.653 400.32 394.693 408.13 392.793 415.735H278.973L256.628 393.401C258.018 391.111 258.787 388.498 258.859 385.82C276.815 378.406 291.073 374.968 303.289 376.422C402.172 388.289 359.708 297.357 436.264 244.552Z" fill="#C798C5"/>
<path fill-rule="evenodd" clip-rule="evenodd" d="M153.159 277.19C153.159 280.513 151.839 283.7 149.488 286.05C147.136 288.399 143.948 289.719 140.623 289.719C137.298 289.719 134.109 288.399 131.758 286.05C129.407 283.7 128.086 280.513 128.086 277.19C128.042 271.897 129.048 266.648 131.044 261.746C133.041 256.843 135.989 252.384 139.719 248.626C143.448 244.868 147.885 241.885 152.774 239.85C157.663 237.814 162.907 236.766 168.203 236.766C173.5 236.766 178.744 237.814 183.632 239.85C188.521 241.885 192.959 244.868 196.688 248.626C200.418 252.384 203.366 256.843 205.363 261.746C207.359 266.648 208.365 271.897 208.321 277.19H208.37C208.37 280.513 207.049 283.7 204.698 286.05C202.347 288.399 199.158 289.719 195.833 289.719C192.508 289.719 189.319 288.399 186.968 286.05C184.617 283.7 183.296 280.513 183.296 277.19H183.345C183.292 273.225 181.678 269.44 178.854 266.655C176.029 263.869 172.22 262.308 168.252 262.308C164.284 262.308 160.476 263.869 157.651 266.655C154.826 269.44 153.213 273.225 153.159 277.19Z" fill="#C197C5"/>
</g>
<defs>
<clipPath id="clip0_21_2">
<rect width="440" height="489" fill="white"/>
</clipPath>
</defs>
</svg>
